<svg xmlns="http://www.w3.org/2000/svg" viewBox="0 0 192 192" width="192" height="192">
  <!-- Background -->
  <rect width="192" height="192" fill="#0f172a" rx="24"/>
  
  <!-- Glow effect -->
  <defs>
    <filter id="glow">
      <feGaussianBlur stdDeviation="4" result="coloredBlur"/>
      <feMerge> 
        <feMergeNode in="coloredBlur"/>
        <feMergeNode in="SourceGraphic"/>
      </feMerge>
    </filter>
  </defs>
  
  <!-- Snake body -->
  <g filter="url(#glow)">
    <!-- Head -->
    <circle cx="96" cy="80" r="16" fill="#67e8f9"/>
    <!-- Body segments -->
    <circle cx="80" cy="80" r="14" fill="#06b6d4"/>
    <circle cx="64" cy="80" r="12" fill="#0891b2"/>
    <circle cx="48" cy="80" r="10" fill="#0e7490"/>
    <circle cx="32" cy="80" r="8" fill="#155e75"/>
  </g>
  
  <!-- Food -->
  <circle cx="120" cy="120" r="8" fill="#f87171" filter="url(#glow)">
    <animate attributeName="r" values="8;10;8" dur="1.5s" repeatCount="indefinite"/>
  </circle>
  
  <!-- Grid lines for game feel -->
  <g opacity="0.1" stroke="#67e8f9" stroke-width="1">
    <line x1="32" y1="32" x2="32" y2="160"/>
    <line x1="48" y1="32" x2="48" y2="160"/>
    <line x1="64" y1="32" x2="64" y2="160"/>
    <line x1="80" y1="32" x2="80" y2="160"/>
    <line x1="96" y1="32" x2="96" y2="160"/>
    <line x1="112" y1="32" x2="112" y2="160"/>
    <line x1="128" y1="32" x2="128" y2="160"/>
    <line x1="144" y1="32" x2="144" y2="160"/>
    <line x1="160" y1="32" x2="160" y2="160"/>
    
    <line x1="32" y1="32" x2="160" y2="32"/>
    <line x1="32" y1="48" x2="160" y2="48"/>
    <line x1="32" y1="64" x2="160" y2="64"/>
    <line x1="32" y1="80" x2="160" y2="80"/>
    <line x1="32" y1="96" x2="160" y2="96"/>
    <line x1="32" y1="112" x2="160" y2="112"/>
    <line x1="32" y1="128" x2="160" y2="128"/>
    <line x1="32" y1="144" x2="160" y2="144"/>
    <line x1="32" y1="160" x2="160" y2="160"/>
  </g>
</svg>