<svg xmlns="http://www.w3.org/2000/svg" viewBox="0 0 512 512" width="512" height="512">
  <rect width="512" height="512" fill="#0f172a" rx="64"/>
  <defs>
    <filter id="glow">
      <feGaussianBlur stdDeviation="8" result="coloredBlur"/>
      <feMerge> 
        <feMergeNode in="coloredBlur"/>
        <feMergeNode in="SourceGraphic"/>
      </feMerge>
    </filter>
  </defs>
  <g filter="url(#glow)">
    <circle cx="256" cy="200" r="40" fill="#67e8f9"/>
    <circle cx="216" cy="200" r="36" fill="#06b6d4"/>
    <circle cx="176" cy="200" r="32" fill="#0891b2"/>
    <circle cx="136" cy="200" r="28" fill="#0e7490"/>
    <circle cx="96" cy="200" r="24" fill="#155e75"/>
  </g>
  <circle cx="320" cy="320" r="20" fill="#f87171" filter="url(#glow)"/>
  <g opacity="0.1" stroke="#67e8f9" stroke-width="2">
    <path d="M80 80v352M120 80v352M160 80v352M200 80v352M240 80v352M280 80v352M320 80v352M360 80v352M400 80v352M440 80v352"/>
    <path d="M80 80h352M80 120h352M80 160h352M80 200h352M80 240h352M80 280h352M80 320h352M80 360h352M80 400h352M80 440h352"/>
  </g>
</svg>
